<svg xmlns="http://www.w3.org/2000/svg" viewBox="0 0 800 800"><defs><style>.cls-1{fill:#1877f2;}</style></defs><g id="圖層_1" data-name="圖層 1"><path class="cls-1" d="M358.33,663.43V477.08h-67.7V400h67.7V341.25c0-66.83,39.81-103.75,100.73-103.75,29.17,0,59.69,5.21,59.69,5.21v65.62H485.12c-33.12,0-43.45,20.56-43.45,41.65v50h74L503.8,477.08H441.67V663.43"/></g><g id="圖層_4" data-name="圖層 4"><path class="cls-1" d="M633.33,664.23c-19.45,3-38.89,4.8-58.34,6.67s-38.89,3-58.33,4q-58.33,3-116.66,2.9t-116.67-2.94c-19.44-1-38.89-2.3-58.33-4s-38.89-3.64-58.33-6.64v-1.6l58.33-.39,58.33-.14L400,661.83l116.66.27,58.33.14,58.34.39Z"/><path class="cls-1" d="M132.53,630.5c-3-19.33-4.8-38.65-6.67-58-1.72-19.33-3-38.65-4-58q-3-58-2.9-116t2.94-116c1-19.32,2.3-38.65,4-58,1.86-19.33,3.64-38.66,6.64-58h1.6l.39,58,.14,58,.27,116-.26,116-.15,58-.39,58Z"/><path class="cls-1" d="M166.67,132.53c19.44-3,38.88-4.8,58.33-6.67,19.44-1.72,38.89-3,58.33-4q58.34-3,116.67-2.9t116.66,2.94c19.44,1,38.89,2.3,58.33,4,19.45,1.86,38.89,3.64,58.34,6.64v1.6l-58.34.39-58.33.14L400,134.93l-116.67-.26L225,134.52l-58.33-.39Z"/><path class="cls-1" d="M667.4,166.67c3,19.32,4.81,38.65,6.68,58,1.71,19.32,3,38.65,4,58q3,58,2.9,116t-2.94,116c-1,19.33-2.3,38.65-4,58s-3.63,38.65-6.64,58h-1.6l-.39-58-.14-58-.27-116,.27-116,.14-58,.39-58Z"/></g></svg>