<svg id="圖層_1" data-name="圖層 1" xmlns="http://www.w3.org/2000/svg" xmlns:xlink="http://www.w3.org/1999/xlink" viewBox="0 0 800 800"><defs><style>.cls-1{fill:url(#未命名漸層_4);}.cls-2{fill:url(#未命名漸層_5);}.cls-3{fill:url(#未命名漸層_6);}.cls-4{fill:url(#未命名漸層_7);}.cls-5{fill:url(#未命名漸層_9);}.cls-6{fill:url(#未命名漸層_2);}.cls-7{fill:#fff;}</style><linearGradient id="未命名漸層_4" x1="400.03" y1="128.95" x2="400.03" y2="144.95" gradientTransform="matrix(1, 0, 0, -1, 0, 802)" gradientUnits="userSpaceOnUse"><stop offset="0" stop-color="#ffe082"/><stop offset="0.06" stop-color="#ffe082"/><stop offset="0.11" stop-color="#ffd962"/><stop offset="0.13" stop-color="#ffd54f"/><stop offset="0.16" stop-color="#ffcc2f"/><stop offset="0.2" stop-color="#ffc107"/><stop offset="0.24" stop-color="#ffa803"/><stop offset="0.27" stop-color="#ff9800"/><stop offset="0.34" stop-color="#ff6f00"/><stop offset="0.42" stop-color="#ff1744"/><stop offset="0.49" stop-color="#f50057"/><stop offset="0.56" stop-color="#d81b60"/><stop offset="0.63" stop-color="#c2185b"/><stop offset="0.7" stop-color="#8e24aa"/><stop offset="0.78" stop-color="#673ab7"/><stop offset="0.86" stop-color="#6200ea"/><stop offset="0.93" stop-color="#4928f4"/><stop offset="1" stop-color="#304ffe"/></linearGradient><linearGradient id="未命名漸層_5" x1="126.98" y1="169.88" x2="126.98" y2="633.88" xlink:href="#未命名漸層_4"/><linearGradient id="未命名漸層_6" x1="400.01" y1="659.05" x2="400.01" y2="675.04" xlink:href="#未命名漸層_4"/><linearGradient id="未命名漸層_7" x1="673.02" y1="169.71" x2="673.02" y2="633.71" xlink:href="#未命名漸層_4"/><radialGradient id="未命名漸層_9" cx="115.2" cy="194.11" r="556.62" gradientTransform="matrix(1, 0, 0, -1, 94, 804)" gradientUnits="userSpaceOnUse"><stop offset="0.09" stop-color="#fa8f21"/><stop offset="0.78" stop-color="#d82d7e"/></radialGradient><radialGradient id="未命名漸層_2" cx="390.5" cy="208.19" r="489.83" gradientTransform="matrix(1, 0, 0, -1, 94, 804)" gradientUnits="userSpaceOnUse"><stop offset="0.64" stop-color="#8c3aaa" stop-opacity="0"/><stop offset="1" stop-color="#8c3aaa"/></radialGradient></defs><g id="圖層_2" data-name="圖層 2"><path class="cls-1" d="M633.36,665.85c-19.45,3-38.89,4.8-58.33,6.67s-38.89,3-58.34,4q-58.34,3-116.66,2.9T283.36,676.5q-29.16-1.5-58.33-4c-19.45-1.7-38.89-3.64-58.33-6.64v-1.6l58.33-.39,58.33-.14L400,663.45l116.66.26,58.34.15,58.33.39Z"/><path class="cls-2" d="M132.57,632.12c-3-19.33-4.81-38.65-6.68-58-1.72-19.33-3-38.65-4-58q-3-58-2.9-116t2.94-116q1.5-29,4-58c1.7-19.35,3.64-38.66,6.65-58h1.6l.38,58,.15,58,.26,116-.26,116-.14,58-.39,58Z"/><path class="cls-3" d="M166.7,134.15c19.44-3,38.89-4.8,58.33-6.67s38.89-3,58.33-4q58.33-3,116.67-2.9t116.66,2.94q29.17,1.5,58.34,4c19.45,1.7,38.88,3.64,58.33,6.64v1.6l-58.33.39-58.34.14L400,136.55l-116.67-.26L225,136.14l-58.33-.39Z"/><path class="cls-4" d="M667.43,168.29c3,19.32,4.81,38.65,6.68,58s3,38.65,4,58q3,58,2.9,116t-2.94,116q-1.5,29-4,58c-1.86,19.33-3.64,38.65-6.65,58h-1.6l-.38-58-.15-58-.26-116,.26-116,.14-58,.39-58Z"/></g><path class="cls-5" d="M292,617.94c-26.07-1.18-40.23-5.52-49.65-9.19A88.6,88.6,0,0,1,191.59,558c-3.68-9.42-8-23.59-9.2-49.66-1.3-28.18-1.56-36.64-1.56-108s.28-79.85,1.55-108.06c1.18-26.07,5.55-40.21,9.19-49.65a88.6,88.6,0,0,1,50.76-50.77c9.42-3.67,23.58-8,49.65-9.19,28.2-1.29,36.67-1.55,108-1.55s79.85.28,108.06,1.55c26.07,1.18,40.21,5.55,49.65,9.19a88.62,88.62,0,0,1,50.76,50.76c3.67,9.42,8,23.58,9.19,49.65,1.29,28.21,1.55,36.65,1.55,108.06s-.26,79.84-1.55,108.05c-1.18,26.07-5.55,40.24-9.19,49.66a88.66,88.66,0,0,1-50.76,50.74c-9.42,3.67-23.58,8-49.65,9.19-28.18,1.29-36.65,1.55-108.06,1.55s-79.84-.24-108-1.55"/><path class="cls-6" d="M292,617.94c-26.07-1.18-40.23-5.52-49.65-9.19A88.6,88.6,0,0,1,191.59,558c-3.68-9.42-8-23.59-9.2-49.66-1.3-28.18-1.56-36.64-1.56-108s.28-79.85,1.55-108.06c1.18-26.07,5.55-40.21,9.19-49.65a88.6,88.6,0,0,1,50.76-50.77c9.42-3.67,23.58-8,49.65-9.19,28.2-1.29,36.67-1.55,108-1.55s79.85.28,108.06,1.55c26.07,1.18,40.21,5.55,49.65,9.19a88.62,88.62,0,0,1,50.76,50.76c3.67,9.42,8,23.58,9.19,49.65,1.29,28.21,1.55,36.65,1.55,108.06s-.26,79.84-1.55,108.05c-1.18,26.07-5.55,40.24-9.19,49.66a88.66,88.66,0,0,1-50.76,50.74c-9.42,3.67-23.58,8-49.65,9.19-28.18,1.29-36.65,1.55-108.06,1.55s-79.84-.24-108-1.55"/><path class="cls-7" d="M346.2,401.22a54.29,54.29,0,1,1,54.29,54.3,54.29,54.29,0,0,1-54.29-54.3m-29.35,0a83.64,83.64,0,1,0,83.64-83.63,83.64,83.64,0,0,0-83.64,83.63m151-86.94a19.54,19.54,0,1,0,19.55-19.54h0a19.55,19.55,0,0,0-19.54,19.54M334.69,533.8c-15.88-.72-24.51-3.37-30.25-5.6a54,54,0,0,1-30.92-30.91c-2.23-5.73-4.88-14.36-5.6-30.24-.79-17.17-.95-22.33-.95-65.82s.17-48.64.95-65.82c.72-15.88,3.39-24.5,5.6-30.25a54,54,0,0,1,30.92-30.92c5.73-2.23,14.37-4.88,30.25-5.6,17.16-.79,22.32-.95,65.8-.95s48.63.17,65.82.95c15.87.73,24.49,3.39,30.24,5.61a53.87,53.87,0,0,1,30.92,30.91c2.23,5.74,4.88,14.37,5.6,30.25.79,17.18.95,22.33.95,65.82s-.16,48.64-.95,65.82c-.72,15.88-3.38,24.51-5.6,30.24a53.87,53.87,0,0,1-30.92,30.91c-5.73,2.23-14.37,4.88-30.24,5.6-17.17.79-22.33,1-65.82,1s-48.64-.16-65.8-1m-1.35-294.46c-17.34.79-29.19,3.54-39.54,7.56a83.26,83.26,0,0,0-47.63,47.64c-4,10.36-6.78,22.2-7.57,39.54s-1,22.91-1,67.14.19,49.79,1,67.15,3.54,29.18,7.57,39.54a83.21,83.21,0,0,0,47.63,47.63c10.37,4,22.2,6.78,39.54,7.57s22.92,1,67.15,1,49.78-.19,67.14-1,29.18-3.54,39.54-7.57a83.26,83.26,0,0,0,47.64-47.63c4-10.36,6.78-22.2,7.56-39.54s1-22.92,1-67.15-.18-49.78-1-67.14-3.54-29.19-7.56-39.54a83.34,83.34,0,0,0-47.63-47.64c-10.37-4-22.21-6.78-39.53-7.56s-22.92-1-67.14-1-49.79.19-67.17,1"/></svg>